<svg xmlns="http://www.w3.org/2000/svg" width="45.002" height="45.002"><path d="M28.35 18.697a.139.139 0 0 0 .141.137h4.373a.141.141 0 0 0 .139-.144c-.159-4.821-3.017-8.928-7.107-10.218a.137.137 0 0 0-.172.084.539.539 0 0 1-.21.263.142.142 0 0 0-.062.102.15.15 0 0 0 .039.11c1.696 1.784 2.79 5.489 2.859 9.666z"/><path d="M18.909 18.834h8.743a.15.15 0 0 0 .102-.042.147.147 0 0 0 .041-.099c-.08-4.469-1.355-8.38-3.178-9.733a.136.136 0 0 0-.084-.029h-2.505a.139.139 0 0 0-.082.029c-1.821 1.353-3.097 5.265-3.176 9.733 0 .036.014.073.04.099a.137.137 0 0 0 .099.042z"/><path d="M13.698 18.834h4.372a.14.14 0 0 0 .141-.137c.067-4.176 1.163-7.88 2.86-9.666a.144.144 0 0 0 .039-.111.136.136 0 0 0-.061-.101.53.53 0 0 1-.21-.263.136.136 0 0 0-.172-.084c-4.091 1.29-6.947 5.396-7.108 10.218a.142.142 0 0 0 .139.144zM21.36 8.511h3.841a.14.14 0 0 0 .139-.139V6.697a.14.14 0 0 0-.139-.141h-.582V4.293a.137.137 0 0 0-.014-.061l-1.187-2.37V.863h.341A.141.141 0 0 0 23.9.724a.14.14 0 0 0-.141-.139h-.341V.139A.14.14 0 0 0 23.277 0a.14.14 0 0 0-.139.139v.446h-.339a.14.14 0 0 0-.141.139.14.14 0 0 0 .141.139h.339v.999l-1.187 2.37a.136.136 0 0 0-.013.061v2.263h-.58a.14.14 0 0 0-.139.141v1.675a.142.142 0 0 0 .141.139zm17.7-2.424l-2.32-1.079V.139A.14.14 0 0 0 36.601 0a.142.142 0 0 0-.143.139v4.869l-2.316 1.079a.142.142 0 0 0-.081.127v38.608c0 .078.062.139.139.139H39a.14.14 0 0 0 .141-.139V6.214a.144.144 0 0 0-.081-.127zm-3.759 10.745v-3.716c0-.827.582-1.498 1.3-1.498.716 0 1.3.67 1.3 1.498v3.716h-2.6zm.344 8.697c.374 0 .68.354.68.791v2.055h-1.359V26.32c-.001-.435.305-.791.679-.791zm1.23.791c0-.438.306-.791.68-.791.375 0 .679.354.679.791v2.055h-1.357l-.002-2.055zm1.358-2.726h-1.356V21.54c0-.437.305-.792.679-.792.375 0 .679.354.679.792l-.002 2.054zm-3.268 0V21.54c0-.437.306-.792.681-.792.374 0 .68.354.68.792v2.054h-1.361zM18.76 22.336a.14.14 0 0 0 .139.139h1.749a.13.13 0 0 0 .071-.02l2.2-1.32a.73.73 0 0 1 .721 0l2.2 1.32c.021.014.048.02.071.02h1.75c.075 0 .14-.063.14-.139v-2.804a.139.139 0 0 0-.14-.139h-8.763a.139.139 0 0 0-.139.139l.001 2.804z"/><path d="M28.561 23.033h-2.84l-2.368-1.419a.137.137 0 0 0-.146 0l-2.367 1.419H18a.14.14 0 0 0-.139.141v1.398c0 .078.063.14.139.14h.341v20.11c0 .078.063.139.139.139h2.827a.139.139 0 0 0 .139-.139v-5.245c0-1.162.821-2.104 1.833-2.104 1.014 0 1.835.942 1.835 2.104v5.245c0 .078.063.139.14.139h2.826a.14.14 0 0 0 .141-.139v-20.11h.341a.14.14 0 0 0 .139-.14v-1.398a.143.143 0 0 0-.14-.141zm-5.282 4.095a1.836 1.836 0 0 1 0 3.67 1.836 1.836 0 0 1 0-3.67zm-7.101-.704a.145.145 0 0 0-.198 0l-2.399 2.401a.138.138 0 0 0-.042.099v15.898a.14.14 0 0 0 .141.139h.862a.139.139 0 0 0 .139-.139v-4.118c0-.888.628-1.606 1.398-1.606.771 0 1.397.722 1.397 1.606v4.118a.14.14 0 0 0 .141.139h.024a.139.139 0 0 0 .139-.139V28.086a.131.131 0 0 0-.041-.098l-1.561-1.564zm-.096 7.409a1.398 1.398 0 0 1-1.398-1.397c0-.77.628-1.396 1.398-1.396a1.397 1.397 0 0 1 0 2.793zm14.498-7.409a.143.143 0 0 0-.196 0l-1.563 1.564a.128.128 0 0 0-.042.098v16.736c0 .078.086.139.162.139.078 0 .14-.061.14-.139v-4.118c0-.888.627-1.606 1.399-1.606.771 0 1.396.722 1.396 1.606v4.118a.14.14 0 0 0 .141.139h.861a.14.14 0 0 0 .142-.139V28.924a.154.154 0 0 0-.041-.099l-2.399-2.401zm-.101 4.613a1.397 1.397 0 1 1-1.399 1.397c0-.768.629-1.397 1.399-1.397z"/><path d="M17.301 24.572v-.479a.143.143 0 0 0-.1-.134.134.134 0 0 0-.156.063c-.244.375-.617.592-1.024.592-.692 0-1.257-.582-1.257-1.299 0-.716.565-1.3 1.257-1.3.498 0 .948.308 1.148.783.021.048.066.08.12.083.048.007.101-.022.13-.066a.69.69 0 0 1 .582-.341h.061a.14.14 0 0 0 .139-.139v-2.804a.139.139 0 0 0-.139-.139h-4.379a.14.14 0 0 0-.141.139v8.207c0 .06.035.107.086.13.018.007.036.01.055.01a.133.133 0 0 0 .098-.042l1.807-1.807c.251-.248.739-.248.988 0l.969.971c.04.038.099.055.152.03a.137.137 0 0 0 .086-.13v-1.571a.132.132 0 0 0-.079-.123.71.71 0 0 1-.403-.634zm15.578-5.178H28.5a.138.138 0 0 0-.14.139v2.804a.14.14 0 0 0 .14.139h.062c.234 0 .448.125.583.34.029.044.082.077.129.065a.135.135 0 0 0 .119-.083 1.25 1.25 0 0 1 1.147-.783c.691 0 1.256.584 1.256 1.299 0 .718-.563 1.3-1.256 1.3-.407 0-.78-.218-1.023-.593-.032-.056-.098-.072-.157-.062a.142.142 0 0 0-.1.134v.477a.711.711 0 0 1-.402.636.132.132 0 0 0-.078.122V26.9a.14.14 0 0 0 .086.129.136.136 0 0 0 .152-.03l.97-.97c.249-.248.737-.248.987 0l1.809 1.812a.152.152 0 0 0 .154.027.137.137 0 0 0 .086-.13v-8.207a.144.144 0 0 0-.145-.137zm-20.245 7.09c-2.256.557-3.893 2.862-3.893 5.479v2.803a.14.14 0 0 0 .139.141h3.789a.14.14 0 0 0 .139-.141V26.62a.145.145 0 0 0-.055-.112.127.127 0 0 0-.119-.024zm.035 9.257H6a.14.14 0 0 0-.139.143v8.979c0 .078.063.14.139.14h6.668a.14.14 0 0 0 .139-.14v-8.979a.141.141 0 0 0-.138-.143z"/></svg>